<svg version="1.1" id="Layer_1" xmlns="http://www.w3.org/2000/svg" xmlns:xlink="http://www.w3.org/1999/xlink" x="0px" y="0px"
	 width="100%" viewBox="0 0 800 800" enable-background="new 0 0 800 800" xml:space="preserve">
<path fill="#000000" opacity="1.000000" stroke="none" 
	d="
M311.848175,147.159897 
	C319.698517,155.312363 329.054443,161.259537 336.427704,169.445160 
	C341.915558,175.537674 347.425964,174.831680 351.040375,167.480011 
	C354.261017,160.929184 357.425659,154.211502 359.368805,147.221024 
	C360.657837,142.583557 359.535187,137.320831 359.876984,132.364548 
	C360.419617,124.495636 361.634918,116.875458 367.890625,110.994827 
	C371.188934,107.894287 374.172272,107.824188 377.135864,111.239311 
	C383.804413,118.924004 389.890411,126.816566 393.054565,136.798813 
	C394.839478,142.429886 402.078186,145.979691 408.006348,145.612778 
	C410.207184,145.476562 411.381134,144.247055 411.915131,142.360260 
	C413.267029,137.583710 415.364349,132.967316 414.681641,127.759781 
	C414.317535,124.982506 420.332092,115.952271 422.853149,114.978065 
	C423.713226,114.645714 424.505554,114.612846 425.112823,115.342216 
	C426.177399,116.620804 426.586609,118.560478 425.599365,119.518471 
	C420.026428,124.926521 421.417236,132.178528 420.537628,138.652725 
	C417.879486,158.217545 415.832306,177.864899 413.483612,197.472488 
	C412.604095,204.814774 412.558502,204.930801 419.499176,205.998306 
	C434.109619,208.245453 448.731201,210.420212 463.348907,212.619827 
	C463.842194,212.694046 464.345154,212.769516 464.840576,212.753113 
	C467.416412,212.667816 470.792908,213.516983 471.307953,209.840973 
	C471.804626,206.296371 468.561432,206.208572 466.136871,205.900070 
	C452.479889,204.162277 438.910278,201.529938 425.092194,201.406067 
	C421.947113,201.377869 420.792145,200.141953 420.874878,197.326218 
	C421.143494,188.182632 422.703827,179.178650 423.988800,170.150742 
	C424.497620,166.576248 427.409424,166.165878 430.132935,166.779419 
	C441.358917,169.308456 452.799103,170.084778 464.187134,171.322495 
	C466.087860,171.529053 468.044189,172.062195 468.540833,169.491028 
	C468.997131,167.128693 467.203430,165.992035 465.363251,165.780289 
	C455.150421,164.605042 445.282166,161.126205 434.871429,161.295639 
	C425.918732,161.441360 425.100952,160.708725 425.830475,151.628586 
	C426.295471,145.841019 427.253326,140.080582 428.247284,134.352585 
	C428.864349,130.796463 431.218689,128.712692 434.944000,128.969574 
	C437.578705,129.151245 440.569916,129.169785 442.718781,130.427994 
	C448.596741,133.869644 454.901489,132.907288 461.133362,133.297852 
	C466.274078,133.620026 471.381958,134.450500 476.508789,135.015747 
	C478.713989,135.258865 479.654327,136.193466 479.468079,138.614609 
	C478.932068,145.582336 481.521881,151.546494 485.631470,157.056900 
	C489.221710,161.870926 494.019958,162.350494 498.314911,158.107559 
	C503.537720,152.947906 504.478333,146.096207 505.686493,139.395874 
	C506.131195,136.929565 504.113464,135.543655 502.333954,134.244736 
	C500.900330,133.198318 498.954346,132.848969 497.892029,131.196060 
	C501.523956,128.704712 516.761963,132.742676 520.102966,136.693802 
	C511.005066,153.022202 503.089386,169.773972 495.163818,186.518082 
	C491.247467,194.791992 487.281158,203.032318 482.514587,210.863464 
	C481.101044,213.185867 478.363800,215.920242 482.141327,218.038437 
	C486.073029,220.243088 487.255249,216.527008 488.525696,213.869736 
	C491.108063,208.468460 493.611298,203.028931 496.103821,197.585312 
	C497.511810,194.510284 499.788727,193.862885 502.643829,195.306503 
	C510.363892,199.209991 518.038513,203.203476 525.726257,207.170746 
	C528.229370,208.462479 528.454346,211.008896 528.431824,213.242386 
	C528.347290,221.617767 530.432373,229.733292 531.107544,238.011597 
	C531.431946,241.988998 533.845947,244.067719 538.365479,244.697464 
	C538.098877,237.153137 535.978577,230.355576 534.795471,223.421951 
	C534.711487,222.929657 534.580933,222.445435 534.476990,221.956390 
	C532.166138,211.085861 532.172363,211.134140 542.837708,209.790771 
	C549.534668,208.947250 555.290283,206.063110 559.708313,200.937469 
	C563.562073,196.466507 567.763062,192.208084 570.100525,185.522125 
	C571.440857,189.660187 570.796936,192.582047 569.848389,195.604034 
	C568.913086,198.583725 567.657776,201.606750 568.572388,204.856384 
	C569.931946,209.686707 573.963745,211.870132 578.165039,209.303421 
	C585.950012,204.547302 594.075928,200.145279 600.134827,193.021164 
	C602.189209,190.605606 604.293335,188.267715 607.893372,187.620544 
	C609.891357,190.571793 609.230957,192.955566 607.096191,195.604553 
	C602.756470,200.989670 597.078491,204.863693 592.000732,209.391602 
	C577.635132,222.201645 563.026489,234.739624 548.475281,247.340530 
	C546.318787,249.207962 544.220764,250.914520 546.905151,253.847519 
	C548.687805,255.795380 550.239014,255.297821 551.967651,253.567688 
	C566.161499,239.361542 581.974060,226.941223 596.604797,213.214020 
	C597.450867,212.420242 598.392761,211.701675 599.378601,211.091019 
	C600.526062,210.380234 601.832581,209.782288 603.075928,210.808670 
	C604.144287,211.690567 603.749878,212.902481 603.502502,214.061920 
	C601.974854,221.222458 600.385925,228.371536 598.982788,235.556702 
	C595.319214,254.317062 591.753052,273.096436 588.110413,291.860901 
	C587.741577,293.760803 587.394592,295.784363 584.612305,296.952362 
	C582.895447,290.815430 583.568237,284.661102 583.005127,278.672455 
	C582.632019,274.704285 583.442200,270.543884 582.600891,266.716156 
	C580.258179,256.058502 574.710693,252.180496 564.633850,256.381958 
	C557.782043,259.238770 551.874878,259.945587 544.177856,258.050568 
	C537.031067,256.291016 534.579224,252.855316 531.323914,247.356125 
	C527.005615,240.061203 522.694336,233.059082 520.523804,224.705643 
	C519.030334,218.957916 514.764587,216.848404 508.675323,217.040054 
	C504.120972,217.183395 499.747406,217.923477 495.697845,220.189407 
	C492.046631,222.232468 488.199463,222.160828 484.074738,221.710831 
	C478.101044,221.059113 472.001160,223.067078 466.016815,220.577606 
	C461.543365,218.716660 456.675446,218.373398 451.845001,217.863098 
	C441.197021,216.738190 430.536957,217.214462 419.880890,217.114288 
	C417.192535,217.089020 414.427826,217.225250 412.091217,215.796997 
	C408.052094,213.328033 403.672516,212.780624 399.128845,213.025787 
	C394.135986,213.295181 389.879456,212.087906 385.662445,209.043579 
	C379.462677,204.567871 375.826904,205.348007 370.569763,210.945145 
	C369.207458,212.395538 368.109589,214.090851 366.793213,215.588364 
	C361.811951,221.255035 354.780609,220.387482 350.452301,214.286438 
	C344.923706,206.493515 337.334534,200.728638 329.337433,195.665314 
	C325.943970,193.516724 322.178284,196.726044 322.312500,201.841064 
	C322.504333,209.150436 322.735260,216.524933 323.873627,223.725494 
	C325.115204,231.579147 325.190704,238.833191 320.242401,245.590042 
	C317.905426,248.781204 315.906586,251.288925 311.967377,247.746964 
	C309.997223,245.975464 308.174438,246.751022 306.117645,248.062546 
	C300.540344,251.618958 293.980530,250.015137 290.738373,244.323486 
	C289.602631,242.329697 288.160492,240.856140 286.216766,239.839966 
	C282.591949,237.944931 283.093262,235.594162 285.392578,233.056259 
	C286.509186,231.823730 287.728333,230.678024 288.956299,229.553345 
	C298.205841,221.081833 301.455872,210.769394 299.118713,198.414154 
	C296.644440,185.333908 291.279694,172.897705 290.546539,159.443024 
	C290.461548,157.883194 289.365814,156.229446 291.875916,153.994171 
	C293.406860,158.293259 294.951904,162.136368 296.151428,166.084473 
	C302.004272,185.348892 307.781769,204.636337 313.538422,223.929794 
	C314.329865,226.582275 315.840271,228.165894 318.620209,227.263702 
	C321.682129,226.269989 321.262634,223.722275 320.356628,221.450333 
	C313.067657,203.172852 308.519897,184.009644 302.215363,165.414764 
	C301.655945,163.764832 300.826385,161.983459 302.283875,159.306427 
	C307.025879,161.364487 310.678680,164.719238 314.086639,168.460403 
	C323.266174,178.537445 332.748138,188.293365 343.527344,196.715698 
	C345.601349,198.336227 347.265808,200.473267 349.174805,202.314362 
	C352.683380,205.698074 354.265991,205.341751 355.499146,200.572357 
	C357.706573,192.034775 359.720917,183.446625 361.758392,174.865921 
	C364.065247,165.150665 366.275604,155.412369 368.608704,145.703506 
	C369.062836,143.813721 369.275208,141.744049 371.117249,140.097565 
	C374.112762,140.571838 374.578735,143.155045 375.235016,145.453583 
	C379.941132,161.936707 384.600037,178.433304 389.280609,194.923737 
	C389.917023,197.166000 390.580933,199.400604 391.249298,201.633636 
	C391.824585,203.555695 392.800629,205.140091 395.129852,204.506424 
	C397.561584,203.844894 398.085571,201.852936 397.489105,199.730408 
	C396.228424,195.244461 394.817169,190.797653 393.354584,186.372162 
	C386.933044,166.941849 381.814056,147.136490 376.278015,127.450516 
	C375.695831,125.380211 376.132477,122.039299 372.984528,122.067581 
	C369.865875,122.095604 369.075165,124.995445 368.253967,127.684357 
	C362.080444,147.898376 358.208130,168.669189 353.216553,189.168030 
	C351.580017,195.888977 351.181641,195.843796 345.650055,192.038254 
	C341.715790,189.331604 339.050873,185.479248 335.656921,182.304733 
	C324.865692,172.211304 314.120850,162.068268 303.350281,151.952774 
	C300.406738,149.188263 298.080597,145.952240 296.014557,142.509567 
	C294.832764,140.540298 294.361115,138.388031 295.325531,136.297470 
	C296.369263,134.034851 298.339264,133.088120 299.784027,135.678818 
	C302.588989,140.708557 307.464661,143.380493 311.848175,147.159897 
M444.914001,137.154922 
	C443.805023,137.472473 442.579071,137.585983 441.607452,138.143097 
	C437.528778,140.481750 435.598633,147.154907 438.165588,149.683487 
	C442.140808,153.599228 453.112610,152.853607 456.535736,148.415375 
	C458.146942,146.326340 458.495453,144.012177 456.495880,142.132584 
	C453.501007,139.317337 450.468689,136.284470 444.914001,137.154922 
M303.444397,240.061676 
	C305.532776,237.549591 306.892853,234.873795 303.837250,232.247330 
	C301.537872,230.270859 298.795959,229.372314 296.201660,231.777969 
	C294.062439,233.761642 293.182251,236.384567 294.879547,238.968170 
	C296.870483,241.998749 299.617737,243.096939 303.444397,240.061676 
z"/>
<path fill="#000000" opacity="1.000000" stroke="none" 
	d="
M557.805481,550.798706 
	C560.898071,548.795410 563.714294,547.086548 565.559448,544.107788 
	C567.303955,541.291626 570.525879,541.106750 573.125488,540.144836 
	C574.961304,541.636719 572.743958,543.214844 573.829895,544.604004 
	C573.983948,544.739868 574.214417,545.125732 574.477417,545.149353 
	C595.286011,547.017273 616.075073,549.207703 636.919312,550.519714 
	C644.860229,551.019470 652.778320,552.231995 660.783447,551.991089 
	C663.526428,551.908508 665.621704,551.368347 666.930176,548.732849 
	C668.323486,545.926392 667.507385,543.685181 665.737610,541.380005 
	C649.433594,520.143982 633.095337,498.936829 617.453186,477.197479 
	C612.326477,470.072449 611.240906,461.499115 607.766541,453.804321 
	C606.439575,450.865448 608.954712,448.660614 611.534241,446.608032 
	C613.633789,450.167358 616.931213,450.613007 620.456726,451.183960 
	C641.942505,454.663544 663.387817,458.391632 684.855225,461.985901 
	C691.391724,463.080292 692.114685,464.061035 690.610840,470.508301 
	C689.023926,477.311737 687.214844,484.074158 685.939087,490.935608 
	C685.028870,495.831085 682.296082,497.870026 677.616089,498.657074 
	C670.535278,499.847900 668.465576,502.263214 669.160400,509.443604 
	C669.823792,516.298401 670.218689,523.475830 676.027649,528.644348 
	C676.807129,529.337891 677.431519,530.709656 677.394043,531.740662 
	C676.942688,544.151978 675.530090,556.240051 665.237366,565.104614 
	C663.875854,566.277222 662.441467,566.801208 660.723145,566.881836 
	C652.918884,567.248474 645.117798,567.832825 637.310669,567.926819 
	C633.672668,567.970642 630.805481,569.153381 628.381042,571.601807 
	C625.688660,574.320801 623.153137,577.194885 620.544250,579.996826 
	C619.231628,581.406616 618.492065,583.110046 618.587585,584.992249 
	C619.085938,594.810059 615.700073,604.486572 617.544800,614.355896 
	C617.689453,615.130066 617.430115,616.014709 617.225098,616.813782 
	C615.075012,625.196594 612.688293,633.511719 610.925171,642.002014 
	C609.717224,647.818420 606.336609,649.893616 600.625732,648.266235 
	C595.889404,646.916687 591.893433,647.720581 587.755859,650.011597 
	C580.348328,654.113159 572.932861,653.930237 565.338013,650.028625 
	C556.344604,645.408386 545.032715,651.917908 545.211914,661.978516 
	C545.354553,669.988770 543.033142,677.393616 541.593201,685.026978 
	C540.940430,688.487305 538.295898,690.605957 535.579712,692.562988 
	C529.288452,688.441772 525.492737,682.840210 523.722473,675.823425 
	C522.743469,671.942627 520.851868,669.085693 516.401123,668.870728 
	C515.914185,668.847229 515.413208,668.687744 514.958008,668.497498 
	C508.497772,665.796143 505.978516,666.492493 503.235016,673.480347 
	C500.544098,680.334290 496.276367,686.529358 496.060028,694.534363 
	C495.941772,698.910645 491.425476,702.041687 487.012177,703.642700 
	C484.226044,704.653503 481.790039,703.499023 479.832062,701.366455 
	C477.836853,699.193237 477.793549,696.917786 480.480072,695.594666 
	C487.699829,692.038818 490.135834,684.944702 492.244598,678.368347 
	C495.705048,667.576416 500.301544,657.270325 504.214478,646.684143 
	C506.172394,641.387085 508.553497,636.246826 510.723602,631.027466 
	C511.676941,628.734558 512.313599,625.628784 515.146545,625.557251 
	C518.317017,625.477295 518.363831,629.031311 519.140503,631.159729 
	C523.703186,643.663757 528.031189,656.253601 532.407593,668.825256 
	C533.083130,670.765686 533.678162,672.601929 536.200439,672.857910 
	C539.626404,673.205627 541.633789,671.161194 540.157959,668.107666 
	C532.532288,652.330261 527.169800,635.671082 520.890625,619.371338 
	C518.441833,613.014832 516.084595,606.613281 513.991089,600.133606 
	C512.811279,596.481750 512.331970,592.585205 508.464203,590.542786 
	C508.324524,590.468933 508.214935,590.319275 508.118286,590.185486 
	C504.801819,585.595154 510.856415,569.444275 516.514832,568.924683 
	C529.174805,567.762146 538.542297,558.323730 550.695923,555.905884 
	C553.192139,555.409302 555.245483,552.687073 557.805481,550.798706 
M591.058594,570.367065 
	C593.484741,572.068542 596.269226,573.217224 598.008789,575.900208 
	C603.271484,584.017029 606.628357,592.421082 606.391357,602.520508 
	C605.932251,622.084534 590.772095,638.560120 571.158630,639.380798 
	C567.991028,639.513306 566.916870,640.808044 567.078125,643.585266 
	C567.329346,647.911865 570.677856,647.011475 573.054871,646.544678 
	C581.053101,644.974121 588.015198,641.015503 594.432617,636.151978 
	C602.967896,629.683533 610.348877,621.673096 612.838928,611.339905 
	C616.642273,595.556458 610.792297,582.382996 599.312683,570.844604 
	C587.729675,559.202393 561.636902,552.518066 544.460571,566.505127 
	C535.991455,573.401672 529.459229,581.618469 527.398254,592.684692 
	C527.020203,594.714600 526.131287,597.508606 528.977173,598.230896 
	C531.951355,598.985657 531.721863,595.886963 532.150818,594.191833 
	C533.642090,588.300049 535.749329,582.642029 539.779236,578.089417 
	C553.147766,562.986938 572.454590,559.965759 591.058594,570.367065 
z"/>
<path fill="#000000" opacity="1.000000" stroke="none" 
	d="
M313.457397,685.255249 
	C307.940247,684.068909 302.920105,683.715393 297.830566,685.704224 
	C295.911285,686.454163 293.519135,686.420532 291.412231,686.166504 
	C288.036957,685.759338 285.938385,681.342163 288.050171,678.981384 
	C295.497437,670.656250 299.126801,660.102112 304.850983,650.777283 
	C314.252899,635.461060 323.401184,619.989258 332.678436,604.596313 
	C333.769928,602.785339 335.833710,600.944763 333.074707,599.096741 
	C330.216064,597.182007 328.975983,599.590881 327.642090,601.571167 
	C326.468719,603.313171 325.867188,605.597534 323.216797,606.382019 
	C321.245789,604.414856 321.140442,601.731262 320.766998,599.211670 
	C319.419983,590.123108 308.205780,579.904175 299.015564,579.479004 
	C279.812042,578.590515 268.916321,585.312012 260.848999,602.992554 
	C260.311615,604.170288 260.215149,605.626648 258.900208,606.366943 
	C258.572479,606.403137 258.138885,606.588013 257.939941,606.445435 
	C250.594193,601.181335 242.509506,600.607239 233.801956,601.845337 
	C226.437866,602.892456 219.230850,601.023254 212.229172,598.638916 
	C208.151291,597.250183 205.947449,594.489990 204.376129,590.367371 
	C199.865601,578.533325 198.220062,566.308228 197.739319,553.772278 
	C197.461166,546.519287 190.714081,542.355652 183.674438,545.539856 
	C177.069794,548.527283 170.173645,550.178833 163.310059,552.165771 
	C159.882050,553.158020 156.729797,552.591309 153.498688,551.739502 
	C152.294403,551.421997 151.362045,550.706238 151.317245,549.341492 
	C151.268921,547.869019 152.399780,547.559509 153.532242,547.081360 
	C175.754196,537.698608 197.936844,528.222412 220.182404,518.896240 
	C224.162582,517.227600 228.371811,516.093140 232.503845,514.803528 
	C234.906418,514.053650 236.531769,512.696655 235.575562,510.089874 
	C234.567520,507.341797 232.207260,507.966675 230.052597,508.568787 
	C227.484085,509.286499 225.464523,512.011414 222.445389,511.015015 
	C221.426041,508.630829 222.889709,507.183594 223.709824,505.641510 
	C229.507385,494.740143 225.622742,479.516296 216.185486,471.506714 
	C198.632477,456.609161 169.167145,466.406097 164.029846,486.794464 
	C163.212555,490.037994 161.309021,493.007812 159.652359,496.668365 
	C155.387833,491.271393 154.840637,486.232483 157.124634,480.674103 
	C161.390457,470.292664 158.077332,464.509674 146.938507,462.686859 
	C141.189651,461.746094 135.421631,460.905365 129.701904,459.812042 
	C127.373413,459.366913 124.658806,459.140289 123.555527,455.580750 
	C128.150497,453.521698 133.092896,452.739685 137.871017,452.142334 
	C145.274185,451.216766 152.802139,451.344299 160.251266,450.717377 
	C169.999405,449.896942 179.704498,448.361145 189.462814,447.942657 
	C195.213928,447.696014 201.018753,446.880402 206.822647,447.735443 
	C209.944214,448.195312 211.931229,446.949402 212.287186,443.520325 
	C212.543549,441.050812 211.563309,440.075531 209.187515,440.346985 
	C208.528030,440.422363 207.868332,440.561920 207.229858,440.745483 
	C195.262787,444.186310 187.327530,437.288757 179.806274,429.790619 
	C177.274872,427.266998 177.121262,424.619293 180.648636,421.880096 
	C187.304932,416.711212 193.823471,411.321106 199.589050,405.091522 
	C201.133774,403.422577 203.231567,402.226440 205.182419,400.980774 
	C208.895493,398.609802 209.900909,395.300140 209.027817,390.984039 
	C205.762741,390.353607 204.584564,393.108185 203.045578,394.694489 
	C197.727921,400.175659 192.098618,405.305878 186.231613,410.165680 
	C183.035217,412.813385 181.092804,416.632385 177.292633,418.767334 
	C174.182571,420.514526 171.907394,420.482147 169.254593,418.039490 
	C163.870041,413.081451 158.465271,408.171783 153.729492,402.556885 
	C149.699402,397.778687 147.449295,392.779083 150.431000,386.573059 
	C151.499374,384.349396 150.998886,381.989960 150.476929,379.700897 
	C149.543091,375.605591 151.138306,373.987274 155.340668,373.732574 
	C164.192978,373.195984 172.437408,376.255920 180.960312,377.600983 
	C191.767715,379.306580 202.284973,382.649780 213.250031,383.532471 
	C215.179276,383.687775 215.645584,384.932465 215.960022,386.526642 
	C216.312164,388.311890 217.245789,390.069580 217.217300,391.827789 
	C217.090469,399.661987 219.450195,407.567657 215.920898,415.317047 
	C211.851425,424.252502 217.186722,439.352661 225.939667,444.047119 
	C228.669296,445.511108 229.885147,447.415558 229.859940,450.364624 
	C229.788971,458.669250 231.579498,466.812378 231.449661,475.209564 
	C231.347168,481.838715 234.129089,488.512177 235.626633,495.166687 
	C235.919266,496.467072 236.507904,497.789398 236.431686,499.070190 
	C235.832321,509.142426 243.334518,512.221069 250.562241,515.270081 
	C260.885834,519.625000 267.483063,526.542053 270.289795,537.845154 
	C272.298859,545.935913 274.029999,553.984497 275.241272,562.216797 
	C276.185120,568.631775 282.200836,572.146667 289.687561,571.342529 
	C299.277435,570.312439 309.039795,568.176697 318.353180,571.928223 
	C326.027466,575.019409 333.103180,579.583984 340.748749,582.763123 
	C347.057404,585.386353 353.178162,587.688538 358.878510,591.950867 
	C364.590027,596.221497 372.669525,595.236511 379.747162,595.812195 
	C390.307373,596.671265 396.542847,603.759949 403.156982,610.507874 
	C404.490997,611.868835 403.911774,613.662415 403.444794,615.267517 
	C401.759430,621.060974 401.304321,626.973511 400.863464,632.987549 
	C400.200867,642.025452 395.852386,650.160828 392.853516,658.602844 
	C392.091278,660.748596 389.961182,661.925049 387.659637,661.978516 
	C383.870300,662.066406 380.483002,663.499329 377.144470,664.940674 
	C370.550354,667.787781 363.815796,667.774597 357.055450,666.148560 
	C347.342255,663.812378 341.382843,651.837219 345.238129,642.763184 
	C346.740326,639.227417 349.848877,639.879028 352.525726,640.433044 
	C356.749451,641.307312 360.915741,642.522522 365.035645,643.818237 
	C369.862488,645.336243 374.751007,645.987427 379.799316,645.793762 
	C390.093048,645.398926 399.802551,633.179443 396.480469,623.502014 
	C394.470673,617.647278 388.883850,613.945068 383.326111,611.167358 
	C377.842590,608.426697 371.836365,608.021240 365.761444,608.345032 
	C361.887634,608.551453 359.803223,611.779602 356.777771,613.408264 
	C355.492035,614.100403 354.447601,615.606567 352.845032,614.331238 
	C351.506317,613.265930 352.252930,611.931396 352.693146,610.671692 
	C353.395874,608.660828 354.758942,606.249023 351.445160,605.443604 
	C348.700226,604.776489 347.631531,606.889282 347.103882,609.166992 
	C344.062775,622.294312 340.415985,635.325439 338.267883,648.598511 
	C337.033295,656.227173 341.025330,662.952515 347.776764,667.145996 
	C357.379395,673.110413 367.943298,674.502197 378.982239,672.527832 
	C381.496979,672.078003 383.528137,670.582397 385.512787,669.009338 
	C387.407867,667.507385 389.645844,666.219482 391.729523,668.445618 
	C393.903687,670.768372 392.023499,672.770386 390.573822,674.587402 
	C386.562347,679.615356 380.790863,680.789124 374.913605,681.041321 
	C368.097351,681.333740 361.252441,681.097656 354.423859,680.931763 
	C342.815430,680.649902 331.779755,684.104370 320.539276,686.140198 
	C317.994324,686.601135 316.011383,686.214233 313.457397,685.255249 
M214.658813,587.837158 
	C218.044510,590.246338 221.381592,592.700989 224.898148,594.949646 
	C232.096832,599.552856 238.923203,598.942444 246.024689,594.902527 
	C250.376038,592.427002 254.646088,589.848145 258.018280,586.150269 
	C264.428223,579.121094 269.668274,571.367493 268.454681,561.251465 
	C266.841156,547.801941 259.384735,538.373535 246.777374,533.759277 
	C234.671097,529.328430 223.613632,532.704651 214.554367,541.335083 
	C205.961731,549.520996 200.046997,559.636414 205.158234,573.099182 
	C207.189316,578.448914 210.246552,583.174622 214.658813,587.837158 
z"/>
<path fill="#000000" opacity="1.000000" stroke="none" 
	d="
M636.845337,420.199768 
	C622.502808,418.829529 613.135498,407.955750 615.115662,394.713501 
	C617.670410,396.896332 618.965210,399.461761 620.242676,402.109711 
	C625.285583,412.562408 634.480530,417.059784 645.394348,413.797546 
	C652.722046,411.607269 656.281799,405.298401 658.761780,398.653107 
	C661.574280,391.116760 662.430664,383.110657 662.963501,375.123535 
	C663.177185,371.920776 663.754517,368.857605 664.811340,365.858063 
	C668.198853,356.243774 680.113708,353.255127 687.697998,360.110321 
	C689.704773,361.924194 691.371460,364.009094 692.343628,366.537476 
	C696.558350,377.498444 697.517761,388.467865 692.191406,399.388824 
	C691.599304,400.602966 690.802551,401.820007 691.873596,403.072418 
	C692.873779,404.241974 694.324036,403.939331 695.629578,403.777252 
	C698.616333,403.406403 700.238708,401.309052 701.472473,398.858734 
	C702.198853,397.415985 702.736450,395.878204 703.383972,394.322998 
	C703.942993,394.692200 704.429565,394.868103 704.425415,395.031677 
	C704.144348,406.182037 707.686218,418.045044 698.456909,427.547607 
	C697.438538,428.596161 697.480164,429.942963 697.262817,431.258453 
	C696.125122,438.144348 694.788391,444.999786 693.778809,451.903534 
	C693.153809,456.177216 690.718750,457.568604 686.831299,456.980164 
	C683.215393,456.432770 679.626343,455.692810 676.040649,454.963257 
	C658.137451,451.320557 640.236938,447.664917 622.342346,443.980469 
	C620.098999,443.518524 617.684937,443.380219 615.670837,441.125977 
	C617.995605,436.539734 622.585083,435.901581 626.842712,435.216797 
	C630.430176,434.639740 634.141235,434.835205 637.768433,435.699615 
	C641.338806,436.550507 644.715637,435.833252 647.862793,433.986725 
	C650.581726,432.391510 651.917297,429.910950 651.521790,426.880707 
	C651.138000,423.940552 649.119568,422.260284 646.135315,421.781799 
	C643.176514,421.307434 640.230591,420.753265 636.845337,420.199768 
M671.709412,421.763794 
	C671.457581,425.365051 671.373047,428.694458 675.953003,430.023651 
	C679.669739,431.102295 682.835938,430.921906 685.495544,427.929657 
	C688.591187,424.446899 689.609497,420.402771 689.227600,415.541107 
	C686.468750,415.959534 684.525696,415.938751 682.537170,414.613495 
	C680.724548,413.405457 678.363281,413.020599 675.156006,411.889191 
	C679.788879,410.409912 682.889221,408.264435 686.164062,406.427582 
	C688.203186,405.283936 689.198792,403.780762 688.276978,401.533508 
	C686.534424,397.285522 687.003601,393.105804 688.227356,388.843750 
	C689.014160,386.103546 689.012390,383.247864 688.626282,380.424286 
	C687.770752,374.166962 681.852173,371.064148 676.104431,373.673523 
	C673.364685,374.917267 671.477356,376.737915 670.365112,379.537292 
	C667.095520,387.766205 666.036438,396.429352 667.215820,405.013428 
	C667.953979,410.385681 673.839050,414.596649 671.709412,421.763794 
z"/>
<path fill="#000000" opacity="1.000000" stroke="none" 
	d="
M168.857193,489.905212 
	C174.610260,470.703369 195.050217,466.288727 209.645966,473.294800 
	C217.747238,477.183502 220.960175,485.424011 221.302048,494.587830 
	C221.664154,504.293976 218.099045,511.823151 209.776398,516.828613 
	C207.098740,518.439026 204.066223,519.570557 201.068390,520.516541 
	C191.882217,523.415222 183.974426,520.903870 177.448929,514.105286 
	C171.102982,507.493713 167.049820,499.908234 168.857193,489.905212 
z"/>
<path fill="#000000" opacity="1.000000" stroke="none" 
	d="
M515.512817,160.540070 
	C521.633118,148.710037 520.029419,147.645218 533.231812,154.160568 
	C538.005554,156.516403 542.947021,158.630905 547.428467,161.462509 
	C562.575073,171.033035 563.803223,184.639709 553.964111,198.589905 
	C549.859558,204.409454 539.116211,206.778351 531.471313,204.314957 
	C522.251282,201.344025 514.028931,196.128616 505.074921,192.529266 
	C500.750610,190.790955 501.150848,187.205139 503.004333,183.720215 
	C507.069092,176.077469 511.213348,168.477020 515.512817,160.540070 
M538.969177,168.496368 
	C537.458130,166.753387 535.437683,166.159210 533.248474,165.755768 
	C528.024109,164.792953 524.256592,166.192673 523.475098,170.033264 
	C522.703613,173.824829 523.732910,177.418396 527.040588,179.776260 
	C530.156677,181.997620 538.250366,181.446289 540.210022,178.980774 
	C542.954529,175.527878 542.223389,172.180725 538.969177,168.496368 
z"/>
<path fill="#000000" opacity="1.000000" stroke="none" 
	d="
M266.088623,616.393494 
	C265.564575,605.949280 268.756744,597.389709 276.455994,590.753235 
	C283.889313,584.346008 295.071045,583.484314 304.325989,589.786255 
	C313.801727,596.238525 321.216949,606.354126 316.849701,618.790283 
	C312.594666,630.906921 302.211395,638.837646 289.772095,638.235535 
	C279.844910,637.754944 269.773956,628.599365 266.088623,616.393494 
M304.784790,615.059692 
	C306.563232,610.852600 306.102722,607.420715 301.785156,604.894409 
	C297.306549,602.273865 290.306488,603.621216 287.208191,607.961304 
	C283.310852,613.420715 285.221466,620.106750 291.380127,622.561035 
	C297.271088,624.908691 299.857849,623.569336 304.784790,615.059692 
z"/>
<path fill="#000000" opacity="1.000000" stroke="none" 
	d="
M464.369690,627.639282 
	C472.951355,633.214478 482.436859,636.100891 491.099609,640.688599 
	C499.486298,645.130066 499.612885,645.642456 495.816833,654.456970 
	C491.465668,664.560425 486.107330,674.064941 479.957855,683.154114 
	C478.978333,684.601868 479.000427,684.616821 476.044891,685.991150 
	C474.957916,683.385315 476.251862,681.141541 477.009491,678.870361 
	C478.800476,673.501526 480.755554,668.185059 482.440338,662.783813 
	C483.641296,658.933655 482.932373,655.710999 479.144714,653.306396 
	C476.319092,651.512634 473.572327,649.813782 470.339813,648.758301 
	C465.951904,647.325745 461.618774,645.871216 457.869843,642.744873 
	C454.016968,639.531921 445.451569,641.150879 441.938660,645.064270 
	C437.883575,649.581604 435.161469,649.026978 433.235107,643.228577 
	C430.664001,635.489746 428.241974,627.706848 426.723602,619.674988 
	C425.807983,614.831848 427.735718,611.862305 432.824280,610.648682 
	C434.548920,615.169250 429.995911,622.059082 437.130035,624.438232 
	C441.901794,626.029602 443.851135,621.180420 446.850098,618.598083 
	C453.177826,620.415161 458.550232,624.062622 464.369690,627.639282 
z"/>
<path fill="#000000" opacity="1.000000" stroke="none" 
	d="
M690.354675,343.399567 
	C700.026184,345.303986 705.570984,349.596985 703.929138,360.367645 
	C703.335815,364.260132 705.298889,368.502563 705.805054,372.621033 
	C706.021667,374.383148 705.539185,376.249054 703.683289,378.744812 
	C701.979858,373.349640 700.306091,368.608459 697.929565,364.207672 
	C695.488708,359.687744 693.528870,354.452118 688.501221,352.310730 
	C673.784912,346.042603 661.190735,350.453827 657.347229,368.045105 
	C655.472412,376.625793 654.661743,385.434692 653.205200,394.112762 
	C652.353516,399.187408 650.391296,403.751770 645.542358,406.352386 
	C637.652832,410.583771 629.680786,407.834137 625.307068,398.900940 
	C620.001160,388.064026 620.820129,376.970581 625.104736,365.984436 
	C625.759216,364.306305 626.797974,362.778046 627.779846,360.956329 
	C630.216492,362.095917 629.829407,364.095642 629.697327,366.018219 
	C629.458191,369.499420 629.110535,372.980774 629.059631,376.465759 
	C628.931030,385.263611 631.624573,387.915222 640.344055,387.585388 
	C643.808289,387.454346 646.535278,386.092529 647.016968,382.183289 
	C647.992310,374.268768 648.957581,366.352661 649.839966,358.427490 
	C649.964844,357.305450 649.319031,355.928497 650.398071,355.145233 
	C655.806213,351.219238 659.858887,345.447571 667.448425,344.579163 
	C674.956421,343.720032 682.242737,340.302887 690.354675,343.399567 
z"/>
<path fill="#000000" opacity="1.000000" stroke="none" 
	d="
M612.881348,322.971863 
	C609.828552,331.835175 606.679626,333.243408 601.094482,332.136993 
	C590.540771,330.046326 586.977783,325.572784 587.638855,316.463867 
	C587.819336,313.977478 588.050415,311.461487 587.855042,308.990967 
	C587.676758,306.736115 586.952454,304.524414 586.326050,301.635681 
	C590.263000,302.994324 592.560852,301.270355 595.143860,298.972656 
	C611.126038,284.756134 627.004395,270.402832 644.248413,257.678955 
	C646.520081,256.002808 648.463684,253.862473 650.804993,252.306961 
	C652.517212,251.169434 654.780273,249.619171 656.695496,251.624725 
	C658.528503,253.544250 656.868225,255.675247 656.069092,257.630676 
	C655.945923,257.932098 655.764404,258.272705 655.508911,258.447906 
	C648.666626,263.139557 645.606079,271.406677 638.723450,276.107178 
	C636.113586,277.889648 633.969421,280.385437 632.555786,283.243408 
	C628.594421,291.252350 622.014771,296.763550 615.132996,302.026550 
	C610.122803,305.858215 608.956665,310.809052 611.891602,316.504547 
	C612.911682,318.484039 613.930725,320.344360 612.881348,322.971863 
M600.092468,312.374573 
	C598.576965,312.959564 597.834167,314.287201 597.101379,315.583405 
	C595.852234,317.793121 595.690063,320.048035 597.408936,322.077148 
	C598.807983,323.728516 600.696167,324.347321 602.806335,323.707581 
	C605.300964,322.951263 606.598511,321.101837 606.883057,318.579254 
	C607.388000,314.103119 605.233826,312.067719 600.092468,312.374573 
z"/>
<path fill="#000000" opacity="1.000000" stroke="none" 
	d="
M620.283569,516.407593 
	C622.151611,513.040833 624.027954,510.089600 625.532227,506.959503 
	C627.406128,503.060211 629.275635,502.499817 631.933472,505.852875 
	C637.177856,512.469238 642.109741,519.332214 647.258911,526.025513 
	C650.898254,530.756348 654.709412,535.354736 658.385986,540.057495 
	C659.518433,541.506042 660.615906,543.175049 659.619019,545.069275 
	C658.477417,547.238647 656.483032,546.253784 654.720398,546.052734 
	C641.729797,544.571350 628.708008,543.462219 615.637451,543.038452 
	C607.802856,542.784485 606.648865,540.901367 610.420288,534.088501 
	C613.628967,528.292175 617.826172,523.049072 620.283569,516.407593 
z"/>
<path fill="#000000" opacity="1.000000" stroke="none" 
	d="
M611.950317,203.232117 
	C613.382874,200.298187 614.710815,197.178238 618.247986,198.507095 
	C621.519287,199.736038 622.046448,203.089279 621.407288,206.165527 
	C619.440735,215.630493 616.117737,224.690887 612.743958,233.727737 
	C611.042847,238.284500 609.868530,242.953506 610.206299,247.882690 
	C610.654358,254.421844 614.241211,257.036682 620.545166,255.581802 
	C625.841492,254.359482 630.638611,252.426880 634.284912,248.092972 
	C637.527161,244.239243 642.102112,242.782120 647.592346,241.483139 
	C645.744080,245.606125 643.145935,248.317871 640.444092,250.769714 
	C628.990479,261.163513 617.379272,271.383514 605.867126,281.713226 
	C604.770081,282.697601 603.874084,283.943939 603.037354,285.172546 
	C601.323914,287.688354 599.101013,288.504181 595.436707,287.578827 
	C600.918518,259.450989 606.361328,231.523468 611.950317,203.232117 
z"/>
<path fill="#000000" opacity="1.000000" stroke="none" 
	d="
M510.427246,622.285645 
	C508.153473,626.963623 506.148590,631.352234 503.915863,635.621765 
	C502.310242,638.692139 500.372681,639.870422 496.753204,637.547241 
	C484.780518,629.862976 472.473083,622.699707 460.515900,614.992493 
	C456.667145,612.511658 453.182526,610.553528 448.538391,612.326050 
	C447.393829,612.762878 445.914001,613.218140 444.771637,611.335510 
	C447.439667,608.030029 451.193024,607.391968 455.172272,607.048523 
	C465.593445,606.149414 475.719910,608.227356 485.845612,610.079529 
	C496.695953,612.064331 499.913574,610.201660 502.839691,599.522705 
	C503.046234,598.768982 502.884338,597.827515 504.516174,597.186279 
	C508.656860,604.916199 515.671753,611.768494 510.427246,622.285645 
z"/>
<path fill="#000000" opacity="1.000000" stroke="none" 
	d="
M367.553986,640.559692 
	C362.684296,639.060608 358.061035,638.486450 353.461578,637.740112 
	C348.267059,636.897217 347.061859,634.944214 348.125061,629.774536 
	C350.242310,619.479553 355.125244,615.634094 365.656464,615.468323 
	C368.671570,615.420898 371.661255,615.471191 374.604309,615.909546 
	C384.135406,617.329224 389.257477,624.253235 387.875366,633.590881 
	C387.191162,638.213379 379.519379,642.554321 373.345703,641.740112 
	C371.533417,641.501099 369.751465,641.031799 367.553986,640.559692 
z"/>
<path fill="#000000" opacity="1.000000" stroke="none" 
	d="
M174.306091,443.400208 
	C165.447861,443.792999 156.995102,443.993805 148.596085,444.773376 
	C142.572617,445.332489 136.888794,444.160767 130.485107,443.465088 
	C132.592896,439.061981 135.305939,436.901245 139.155487,435.647552 
	C143.809494,434.131866 148.992599,434.166656 152.917191,430.351685 
	C155.819962,427.529999 156.440247,425.364960 153.815689,421.894470 
	C150.623169,417.672913 148.104538,412.939728 145.327469,408.407593 
	C144.730042,407.432587 144.083084,406.405457 145.214157,404.212616 
	C158.771042,416.500824 173.493652,427.081329 185.359207,441.470184 
	C181.607208,443.656769 178.163452,443.516937 174.306091,443.400208 
z"/>
<path fill="#000000" opacity="1.000000" stroke="none" 
	d="
M171.999496,368.187073 
	C163.387238,364.160675 161.598129,356.637482 161.092056,348.636566 
	C160.909500,345.750305 161.538284,342.790222 160.639343,339.402802 
	C165.239975,339.458191 166.970291,342.818512 168.652664,345.430756 
	C174.182510,354.016998 181.571915,358.541412 191.975861,359.246399 
	C199.857849,359.780548 207.872238,361.248749 213.503738,368.072632 
	C216.661133,371.898560 216.374527,373.363953 211.673721,375.194885 
	C208.394699,376.472015 205.156677,375.970245 201.866501,375.313721 
	C191.945175,373.334045 181.853424,372.084137 171.999496,368.187073 
z"/>
<path fill="#000000" opacity="1.000000" stroke="none" 
	d="
M284.750519,657.680664 
	C284.977478,653.025452 282.076843,650.695068 278.989685,648.703613 
	C277.202850,647.551025 275.051147,646.931213 273.017609,646.199646 
	C263.287384,642.698792 258.308960,635.477173 258.543488,625.091797 
	C258.562714,624.241638 258.758392,623.440430 260.263428,622.795654 
	C265.219604,629.567993 270.476196,636.315125 278.280731,640.535645 
	C286.398682,644.925598 294.643463,641.635376 302.732513,640.710938 
	C303.565094,644.892151 300.813812,646.680969 299.555023,649.085022 
	C295.917664,656.031738 291.612518,662.573853 287.029846,668.929443 
	C286.158478,670.137878 285.112762,671.233398 284.061005,672.295288 
	C283.118256,673.247131 282.022278,674.259583 280.572357,673.412537 
	C278.993134,672.489807 278.956726,670.844421 279.549866,669.424805 
	C281.151550,665.591370 282.948303,661.839478 284.750519,657.680664 
z"/>
<path fill="#000000" opacity="1.000000" stroke="none" 
	d="
M614.894043,516.835205 
	C611.271179,523.594116 607.758301,529.992798 604.410522,536.476624 
	C602.457153,540.259705 599.441711,542.010925 595.434631,540.884888 
	C592.009583,539.922424 588.081299,540.808655 584.685486,538.026672 
	C586.593567,535.508423 588.575867,533.250183 591.521118,532.491882 
	C595.001160,531.595886 597.359741,529.430786 599.377014,526.740295 
	C603.163269,521.690491 607.325684,516.845825 610.485657,511.422791 
	C614.413452,504.682129 614.412781,497.195282 612.297668,489.744446 
	C611.538391,487.070068 610.680298,484.423767 609.772522,481.454559 
	C612.484680,480.939331 613.672180,482.328278 614.768433,483.688080 
	C617.581299,487.177155 620.407959,490.661499 623.059387,494.272278 
	C625.070007,497.010529 624.658997,499.856873 622.845337,502.614990 
	C619.922913,507.059204 617.183105,511.609833 614.894043,516.835205 
z"/>
<path fill="#000000" opacity="1.000000" stroke="none" 
	d="
M702.796143,486.512207 
	C701.190735,490.231445 699.834656,493.637695 698.147705,496.871307 
	C697.333252,498.432495 696.034668,500.203247 693.846130,499.474823 
	C691.686035,498.755890 692.419373,496.821838 692.601135,495.199524 
	C694.654236,476.875549 698.047058,458.789795 702.266846,440.851898 
	C702.493896,439.886505 702.778687,438.900330 703.239990,438.031860 
	C704.069031,436.471069 705.418762,435.260437 707.229492,435.638550 
	C709.442078,436.100464 709.276855,438.170654 708.912842,439.718567 
	C706.885315,448.341309 707.009888,457.210846 705.758545,465.921814 
	C704.791565,472.653900 704.622864,479.498688 702.796143,486.512207 
z"/>
<path fill="#000000" opacity="1.000000" stroke="none" 
	d="
M160.983597,505.542908 
	C161.337204,502.799133 162.268112,501.879608 163.853973,504.328125 
	C164.835327,505.843262 165.661758,507.572906 166.078445,509.320496 
	C168.216080,518.285950 175.027496,521.791687 182.941101,524.106689 
	C183.400803,524.241150 183.820374,524.531067 184.236465,524.785034 
	C184.358047,524.859314 184.402863,525.059326 184.523819,525.274597 
	C184.857208,527.034119 183.494583,527.331421 182.246964,527.843201 
	C171.574310,532.221008 160.904526,536.606445 150.267059,541.068665 
	C149.154831,541.535278 148.128967,542.275818 147.087982,541.334839 
	C145.793869,540.165100 146.489899,538.774048 147.294891,537.755676 
	C148.834671,535.807617 150.314819,533.634338 152.303619,532.249573 
	C161.863724,525.593018 163.539017,516.492188 160.983597,505.542908 
z"/>
<path fill="#000000" opacity="1.000000" stroke="none" 
	d="
M489.037598,127.592415 
	C490.867096,127.345474 492.371979,126.827576 493.750366,127.805984 
	C494.914551,128.632339 495.683319,129.818710 495.254608,131.233963 
	C494.781281,132.796494 493.273590,133.215729 491.991516,132.643692 
	C489.061005,131.336121 486.187775,131.553162 483.219025,132.281784 
	C481.948486,132.593582 480.701355,132.199600 480.411865,130.869965 
	C479.587494,127.083984 476.752716,127.043755 473.832916,127.111473 
	C467.449707,127.259514 460.714783,127.303963 455.395172,123.873589 
	C449.681061,120.188828 443.023102,120.465500 436.712982,118.104660 
	C438.476440,115.261658 440.974823,115.446861 442.828125,115.553085 
	C450.319275,115.982445 457.772980,115.805862 465.267700,115.594025 
	C473.077881,115.373283 478.077454,121.916962 484.488129,125.136971 
	C485.908081,125.850197 486.833038,127.515488 489.037598,127.592415 
z"/>
<path fill="#000000" opacity="1.000000" stroke="none" 
	d="
M564.242188,158.825287 
	C565.875671,162.865845 567.521667,166.497284 568.900269,170.227524 
	C569.682129,172.342804 570.603516,174.597153 569.272705,176.927887 
	C567.105469,177.284180 566.762817,175.483276 566.228088,174.262512 
	C561.369324,163.169357 552.156311,156.993469 541.670654,152.146164 
	C536.460388,149.737518 531.193726,147.344147 526.988464,143.023529 
	C529.997620,140.241058 532.968079,142.080841 535.652466,142.678223 
	C540.834229,143.831390 546.152588,144.957657 550.940979,147.135574 
	C556.268372,149.558624 561.451111,152.703140 564.242188,158.825287 
z"/>
<path fill="#000000" opacity="1.000000" stroke="none" 
	d="
M152.444168,361.116333 
	C152.806992,359.190002 152.994812,357.530853 154.908600,356.530426 
	C157.750946,359.128937 159.491577,362.349365 161.310440,365.585144 
	C156.770157,367.555359 154.405640,366.397491 152.444168,361.116333 
z"/>
<path fill="#000000" opacity="1.000000" stroke="none" 
	d="
M117.213448,446.830902 
	C118.485344,445.757050 119.589531,445.105682 120.996193,445.640717 
	C121.264999,448.468231 121.264999,448.468231 119.703728,451.080811 
	C117.617813,450.548828 116.126617,449.688263 117.213448,446.830902 
z"/>
<path fill="#000000" opacity="1.000000" stroke="none" 
	d="
M210.121719,571.412354 
	C203.921249,552.737122 225.339828,533.332397 243.073868,538.212402 
	C253.867722,541.182617 259.566925,548.580261 261.911591,558.748413 
	C264.175537,568.566589 259.146698,579.591492 251.023117,584.878784 
	C241.295486,591.210144 231.523712,592.576904 221.062653,586.302795 
	C215.306046,582.850281 212.904434,577.335632 210.121719,571.412354 
M235.354706,573.243835 
	C236.496445,573.406006 237.671280,573.826172 238.774033,573.684631 
	C242.997879,573.142395 244.673172,569.818848 246.189850,566.447937 
	C247.187881,564.229797 247.673492,561.762756 245.736832,559.949219 
	C242.600662,557.012451 238.632126,557.601196 234.899384,558.387939 
	C231.395386,559.126465 230.479385,562.066528 230.185318,565.197205 
	C229.847061,568.798340 230.591461,571.845276 235.354706,573.243835 
z"/>
</svg>